inDegrees=yes
name=IK-live
DataType=double
version=3
OpenSimVersion=4.1
endheader
time	pelvis_tilt	pelvis_list	pelvis_rotation	pelvis_tx	pelvis_ty	pelvis_tz	hip_flexion_r	hip_adduction_r	hip_rotation_r	knee_angle_r	ankle_angle_r	subtalar_angle_r	mtp_angle_r	hip_flexion_l	hip_adduction_l	hip_rotation_l	knee_angle_l	ankle_angle_l	subtalar_angle_l	mtp_angle_l	lumbar_extension	lumbar_bending	lumbar_rotation	neck_flex	neck_latbend	neck_rot	arm_flex_r	arm_add_r	arm_rot_r	elbow_flex_r	pro_sup_r	wrist_flex_r	wrist_dev_r	arm_flex_l	arm_add_l	arm_rot_l	elbow_flex_l	pro_sup_l	wrist_flex_l	wrist_dev_l
0	-13.26340915396604	-7.4197785376692	-145.5612310586408	0.2341366603171506	0.04326292228651554	-1.326684523481465	-22.57163150739918	-1.591265763068642	-3.240616933877213	5.899560354604904	2.451982624139334	1.987972377786656	0	-24.74877929575476	-3.393202642121095	-11.57949854219546	9.793848132074926	-0.4439473045988533	4.250290820099795	0	-21.37711699760957	1.659277491615732	3.206407148933037	0	0	0	77.56677473131785	-14.98065839739593	-3.307775757914198	74.8614118592802	45.07612644565981	0	4.90575424643994	78.17372693821247	-15.19393998522694	-3.80416396412552	74.74969696122557	45.12598846521973	0	4.90575424643994
3.8105373	-14.64910405791802	6.190590633048969	-196.1283690167453	0.2341366603171506	0.04326292228651554	-1.326684523481465	-23.08436448529856	-2.644517177979431	-15.5975864477178	5.899560354604904	2.451982624139334	1.987972377786656	0	-24.50024873795034	5.033485358420148	-26.0601753413519	9.793848132074926	-0.4439473045988533	4.250290820099795	0	-21.37711699760957	1.659277491615732	3.206407148933037	0	0	0	2.946973669751299	-15.16739552605289	30.80724720566027	23.48285590646194	29.72522910538424	0	2.031119846440031	7.856238102820391	-13.32114899456185	40.31775028572006	23.56948182757281	36.04994506453224	0	2.031119846440031
4.0633885	-8.432735537105241	10.12346839859658	-230.8676975201079	0.2341366603171506	0.04326292228651554	-1.326684523481465	-18.59839351376491	-5.677456318493217	-5.099238688294756	5.899560354604904	2.451982624139334	1.987972377786656	0	-26.63539463883017	-3.552668213127264	-17.1661955873748	9.793848132074926	-0.4439473045988533	4.250290820099795	0	-21.37711699760957	1.659277491615732	3.206407148933037	0	0	0	4.085568523172884	-15.16251263543457	29.41015295915101	33.87412934864991	32.7029973701068	0	3.240739599850322	8.895201183339745	-13.37013356824116	38.27613430341321	34.0903413691227	37.58420294155236	0	3.240739599850322
4.3263387	2.072336541378145	16.95859483762151	-265.3738196520023	0.2341366603171506	0.04326292228651554	-1.326684523481465	-20.23247385513659	1.014443155129309	1.376148635887096	5.899560354604904	2.451982624139334	1.987972377786656	0	-29.17467339177331	-1.346003496182782	-14.9436135212516	9.793848132074926	-0.4439473045988533	4.250290820099795	0	-21.37711699760957	1.659277491615732	3.206407148933037	0	0	0	29.11515621190737	-15.06920075927587	8.733215473851732	78.34276436503222	45.96216108391763	0	4.850190999997281	32.16342214628049	-14.30603034393068	11.01731876508502	78.65809365426215	45.57585578875585	0	4.850190999997281
4.5771251	11.94141497355048	15.18748136020957	64.28416074060016	0.2341366603171506	0.04326292228651554	-1.326684523481465	-22.39597158829302	2.506323458440931	-5.464421715347027	5.899560354604904	2.451982624139334	1.987972377786656	0	-27.62562191922517	6.257909422372621	-17.72233277539494	9.793848132074926	-0.4439473045988533	4.250290820099795	0	-21.37711699760957	1.659277491615732	3.206407148933037	0	0	0	74.20397627979617	-14.98109212256376	-4.006780237305988	75.51488205064091	45.031662128165	0	4.872420414233136	74.74857238682038	-15.18963756131878	-5.171391444496093	75.36692682230435	45.09635818401919	0	4.872420414233136
4.8380494	13.04391512222894	7.948703789284831	45.53366026720183	0.2341366603171506	0.04326292228651554	-1.326684523481465	-19.37998988395909	0.2979183285292192	-1.551886936847653	5.899560354604904	2.451982624139334	1.987972377786656	0	-25.18620344554574	6.278317919205811	-26.58691195373729	9.793848132074926	-0.4439473045988533	4.250290820099795	0	-21.37711699760957	1.659277491615732	3.206407148933037	0	0	0	20.0329142986815	-15.09849260513607	14.80031871546547	75.60680618526844	48.53037503873986	0	8.906589877480165	23.71759483237851	-14.012239557837	19.50464199195797	76.63315423935889	47.25963998025049	0	8.906589877480165
5.1007392	10.91209797964635	4.608468046521541	39.82244813972545	0.2341366603171506	0.04326292228651554	-1.326684523481465	-15.52843271577344	-4.073523072019126	-2.166717898816246	5.899560354604904	2.451982624139334	1.987972377786656	0	-22.6430515973184	-3.612709828329149	-4.65261122858105	9.793848132074926	-0.4439473045988533	4.250290820099795	0	-21.37711699760957	1.659277491615732	3.206407148933037	0	0	0	16.97668704145105	-15.11563190509163	20.41575445358333	68.00154221109042	41.32593612423754	0	5.84720735438419	21.16362148554219	-13.84023684503876	27.21316209747782	68.90336684907081	42.49391802024677	0	5.84720735438419
5.3516407	12.34195865334782	6.063099165845053	39.10937529945281	0.2341366603171506	0.04326292228651554	-1.326684523481465	-16.75420178799373	-12.34681146912846	0.7650123039514896	5.899560354604904	2.451982624139334	1.987972377786656	0	-23.11241972845255	-0.398744172493327	-4.820095574008025	9.793848132074926	-0.4439473045988533	4.250290820099795	0	-21.37711699760957	1.659277491615732	3.206407148933037	0	0	0	3.702843849207516	-15.16419783032982	29.94457037982847	29.63016542650141	31.35174000525162	0	2.672885802331806	8.548914160938553	-13.35322609833854	39.09185669815043	29.79233326217157	36.88971049777837	0	2.672885802331806
5.613414	12.54635641802238	5.60284087468971	38.32994691514895	0.2341366603171506	0.04326292228651554	-1.326684523481465	-15.73965081699651	-14.22407469639043	-0.9237601877533772	5.899560354604904	2.451982624139334	1.987972377786656	0	-20.96337293000403	5.949551586852666	-3.435645784688586	9.793848132074926	-0.4439473045988533	4.250290820099795	0	-21.37711699760957	1.659277491615732	3.206407148933037	0	0	0	19.1965501363577	-15.10778252348874	19.05907187419156	69.31095076033475	42.04022194301761	0	5.988297944220675	23.29533182802448	-13.9189399900013	25.65423580647937	70.22992591568674	43.00114563721885	0	5.988297944220675
5.8763784	11.25380127840463	6.388825465052811	37.28016319227275	0.2341366603171506	0.04326292228651554	-1.326684523481465	-14.79995586864492	-17.3355157038274	-0.3829653974921166	5.899560354604904	2.451982624139334	1.987972377786656	0	-19.47169173930454	9.44901856070863	-2.828271391170846	9.793848132074926	-0.4439473045988533	4.250290820099795	0	-21.37711699760957	1.659277491615732	3.206407148933037	0	0	0	13.7548581379554	-15.12407244746653	20.73679341899303	69.62969363638551	42.90718454098811	0	6.86031983714397	17.8977767014384	-13.75567329703926	27.07489102406182	70.604159008282	43.44324402687492	0	6.86031983714397
6.1350663	9.226620237414501	8.335869815894689	36.53166915737719	0.2341366603171506	0.04326292228651554	-1.326684523481465	-14.30050386598716	-20.91908427504955	-1.002220118731252	5.899560354604904	2.451982624139334	1.987972377786656	0	-18.04429828808893	13.28857873684182	-3.808943302544052	9.793848132074926	-0.4439473045988533	4.250290820099795	0	-21.37711699760957	1.659277491615732	3.206407148933037	0	0	0	74.27979259549264	-14.97296574436472	-5.112793466830308	74.5133058134121	44.7392531580987	0	5.255347596789455	75.02413891706476	-15.27108038091787	-6.307459076360573	74.29058897962965	44.84424501952808	0	5.255347596789455
6.3879441	8.428418242163447	8.906009000747499	36.0990315544911	0.2341366603171506	0.04326292228651554	-1.326684523481465	-13.67879130248676	-21.42275476193971	0.6043681872193951	5.899560354604904	2.451982624139334	1.987972377786656	0	-17.29475605330193	14.19195048729054	-4.281252664577174	9.793848132074926	-0.4439473045988533	4.250290820099795	0	-21.37711699760957	1.659277491615732	3.206407148933037	0	0	0	47.69167530859409	-15.01732279002687	-0.2604751897030849	78.85227351166414	45.77943756223566	0	4.909424471337773	49.59945614017926	-14.82630915763655	-0.4475817342422659	78.83597383121494	45.54097195741564	0	4.909424471337773
6.6509326	9.317605439144772	8.206171901817351	36.6408262378289	0.2341366603171506	0.04326292228651554	-1.326684523481465	-14.18559049215126	-18.94688524983272	1.345234961198375	5.899560354604904	2.451982624139334	1.987972377786656	0	-17.87550123025442	11.99695077466662	-3.661708751761183	9.793848132074926	-0.4439473045988533	4.250290820099795	0	-21.37711699760957	1.659277491615732	3.206407148933037	0	0	0	14.95653179781607	-15.12021698891037	20.1569808232537	78.58976715793877	44.08353756264012	0	7.454868382823392	19.06057051781652	-13.7943258649829	26.38919882981454	79.79734875717307	43.93366214198704	0	7.454868382823392
6.9105903	11.02777892337625	6.178347152418637	36.67725174026499	0.2341366603171506	0.04326292228651554	-1.326684523481465	-13.78447832445378	-16.08785056817663	2.373712295450523	5.899560354604904	2.451982624139334	1.987972377786656	0	-18.33499577457194	8.784415447406323	-3.850012940152211	9.793848132074926	-0.4439473045988533	4.250290820099795	0	-21.37711699760957	1.659277491615732	3.206407148933037	0	0	0	10.44211896038116	-15.13607123713831	22.66422167349616	73.13587579589455	43.40739020899248	0	7.331557224771428	14.75145728280161	-13.63536134870897	29.02660552800129	74.14756157265298	43.4581428674151	0	7.331557224771428
7.163467	12.53103643690912	4.827604093961986	37.08460878949202	0.2341366603171506	0.04326292228651554	-1.326684523481465	-14.02750284779855	-13.79946686756266	1.444135731441067	5.899560354604904	2.451982624139334	1.987972377786656	0	-19.13393968063394	6.222478370238912	-3.984061051652044	9.793848132074926	-0.4439473045988533	4.250290820099795	0	-21.37711699760957	1.659277491615732	3.206407148933037	0	0	0	13.59009009605884	-15.12701307852998	22.27620462218365	66.4205209693128	40.51711173117837	0	5.849234579903371	17.88498706262035	-13.72612916481749	29.35219717328549	67.35407514498738	41.95600363416258	0	5.849234579903371
7.4142555	12.09887043984526	5.318273222310959	36.80588213224623	0.2341366603171506	0.04326292228651554	-1.326684523481465	-13.85709180760174	-13.96213595272103	1.864551653991343	5.899560354604904	2.451982624139334	1.987972377786656	0	-18.84233624071844	6.754695099972834	-4.779353427717622	9.793848132074926	-0.4439473045988533	4.250290820099795	0	-21.37711699760957	1.659277491615732	3.206407148933037	0	0	0	10.30198183232566	-15.13854999896824	24.04420750392331	70.01709439101828	40.97988070262262	0	6.439080861811296	14.73066559858971	-13.61045775909441	31.15297007255282	70.99350253923335	41.95724227899594	0	6.439080861811296
7.6742283	11.84504159577976	5.70157602470843	36.35701792102932	0.2341366603171506	0.04326292228651554	-1.326684523481465	-13.78658440088063	-14.29708682189563	1.851716352146486	5.899560354604904	2.451982624139334	1.987972377786656	0	-18.62726931168367	7.228165484859117	-4.948901275590405	9.793848132074926	-0.4439473045988533	4.250290820099795	0	-21.37711699760957	1.659277491615732	3.206407148933037	0	0	0	17.91220543287873	-15.10987387000004	18.45092853723337	78.04352969143881	44.690192087972	0	6.917953500351266	21.95572281651233	-13.8980163960942	24.34219132733991	79.20565287935146	44.46612258345924	0	6.917953500351266
7.9242936	13.32697755239397	4.36524546675133	36.14510362172491	0.2341366603171506	0.04326292228651554	-1.326684523481465	-13.90627651839974	-12.85845042009214	1.551266153442213	5.899560354604904	2.451982624139334	1.987972377786656	0	-18.71903220882066	6.736712873286278	-6.27781882503764	9.793848132074926	-0.4439473045988533	4.250290820099795	0	-21.37711699760957	1.659277491615732	3.206407148933037	0	0	0	87.68198358277608	-14.99422628270591	-0.7866914548294799	75.1229676379204	45.01531126062908	0	5.014859202221827	87.97884325409755	-15.05790475158101	-1.047182136774648	75.09841930635011	45.00495216701621	0	5.014859202221827
8.175921199999999	12.9344945286381	4.982595448503568	35.88042816364668	0.2341366603171506	0.04326292228651554	-1.326684523481465	-13.78557512059471	-13.77593158386568	2.078512699138167	5.899560354604904	2.451982624139334	1.987972377786656	0	-18.2728622030078	7.920879761194221	-6.189709669212223	9.793848132074926	-0.4439473045988533	4.250290820099795	0	-21.37711699760957	1.659277491615732	3.206407148933037	0	0	0	14.04055239757584	-15.12408379412871	21.07373219725385	76.05550075088921	43.11464573247712	0	6.925281567571679	18.22422348028998	-13.75553843808331	27.53932473768921	77.2016419342667	43.3454664831492	0	6.925281567571679
